<?xml version="1.0" encoding="UTF-8"?>
<svg version="1.1" xmlns="http://www.w3.org/2000/svg" width="512" height="512">
<path d="M0 0 C5.39346988 -0.02464849 10.78690725 -0.04283531 16.18041992 -0.05493164 C18.01668875 -0.05997231 19.85295354 -0.06680477 21.68920898 -0.07543945 C24.32276401 -0.08751672 26.95626616 -0.09323081 29.58984375 -0.09765625 C30.41588608 -0.10281754 31.24192841 -0.10797882 32.09300232 -0.11329651 C34.06236368 -0.11349205 36.03161614 -0.06204152 38 0 C39.71281791 1.71281791 39.33416946 3.96973302 39.54394531 6.26977539 C40.58689086 17.24171079 43.69319134 26.32160239 52 34 C60.70671543 40.90143534 71.0438593 43.2614444 82 42 C92.30044531 39.56584937 101.06949198 33.83416921 107 25 C110.65149905 18.39696976 111.49715061 12.1698571 111.7265625 4.6875 C112 2 112 2 114 0 C116.71310649 -0.1874551 119.32229085 -0.25565406 122.03515625 -0.23046875 C123.22594032 -0.22978142 123.22594032 -0.22978142 124.44078064 -0.2290802 C126.11947117 -0.22605765 127.7981589 -0.21817125 129.47680664 -0.20581055 C132.05560158 -0.18754885 134.63403777 -0.18530087 137.21289062 -0.18554688 C138.84114896 -0.18063196 140.46940484 -0.17480376 142.09765625 -0.16796875 C143.26168724 -0.16629951 143.26168724 -0.16629951 144.44923401 -0.16459656 C149.88394993 -0.11605007 149.88394993 -0.11605007 151 1 C151.09705181 2.75335205 151.12515922 4.51056575 151.12597656 6.26660156 C151.12978333 7.39157043 151.13359009 8.51653931 151.13751221 9.67559814 C151.13853943 10.90155701 151.13956665 12.12751587 151.140625 13.390625 C151.15895384 15.96224843 151.17852422 18.53386326 151.19921875 21.10546875 C151.22957299 25.17860919 151.25232281 29.25144281 151.25048828 33.32470703 C151.24954895 37.24285606 151.28834531 41.16017156 151.328125 45.078125 C151.31752045 46.90491791 151.31752045 46.90491791 151.30670166 48.76861572 C151.17896983 55.55677219 151.17896983 55.55677219 154.30371094 61.27246094 C157.91248506 63.5846382 160.8953741 63.86052454 165 63 C167.06355652 62.06639093 169.00909676 60.99498786 170.9921875 59.90234375 C175.47544738 57.88749349 179.60592954 58.50797513 184.1875 60.125 C188.07196678 62.71464452 190.88657021 65.77314041 193 70 C193.52113171 75.22840334 193.64273534 79.64036754 191.375 84.4375 C186.91197879 89.25286499 182.88832621 91.66872679 176.359375 92.18359375 C172.89106098 91.91370839 170.27745478 90.48174444 167.19921875 88.9453125 C163.48143833 87.34726124 161.01508909 87.39773664 157 88 C154.07436161 90.03020388 152.28300374 91.63724099 151.54032135 95.21350861 C151.34951717 98.03652276 151.32785296 100.81999928 151.35644531 103.64941406 C151.3475679 104.72143066 151.33869049 105.79344727 151.32954407 106.89794922 C151.30586255 110.43748956 151.31705191 113.97603725 151.328125 117.515625 C151.31754954 119.97232138 151.30463983 122.42900873 151.28948975 124.88568115 C151.25525387 131.34948041 151.24990846 137.81297788 151.25140381 144.27685547 C151.24817908 153.40368388 151.20558788 162.5304281 151.16766357 171.65716553 C151.14757593 176.51938846 151.13831273 181.38145064 151.13751221 186.24371338 C151.1336937 188.45186365 151.12984989 190.66001388 151.12597656 192.86816406 C151.12807632 193.8852948 151.13017609 194.90242554 151.13233948 195.95037842 C151.12977646 196.87008423 151.12721344 197.78979004 151.12457275 198.73736572 C151.1246143 199.54112766 151.12465584 200.3448896 151.12469864 201.17300797 C151 203 151 203 150 204 C148.25373476 204.09629597 146.50354095 204.12187539 144.75462341 204.12025452 C143.61733795 204.12162918 142.48005249 204.12300385 141.30830383 204.12442017 C139.4201722 204.11902725 139.4201722 204.11902725 137.49389648 204.11352539 C136.17701843 204.11367142 134.86014038 204.11381744 133.50335693 204.1139679 C129.88161732 204.11425587 126.25991054 204.10835924 122.63817859 204.10139394 C118.85718116 204.0951603 115.07618305 204.09455659 111.29518127 204.09336853 C104.1305571 204.09025524 96.9659481 204.08204189 89.80133063 204.07201904 C81.64668838 204.06085782 73.49204543 204.05534743 65.33739746 204.05032361 C48.55825607 204.03985928 31.77912997 204.02225989 15 204 C15.14050565 202.43516994 15.28569282 200.87075992 15.43276978 199.30653381 C15.51310266 198.43530915 15.59343555 197.56408449 15.67620277 196.66645908 C16.20104056 192.34443785 17.29035716 188.19971464 18.3984375 183.99609375 C18.63406403 183.0739357 18.86969055 182.15177765 19.11245728 181.20167542 C19.85976424 178.27846444 20.61628705 175.35776969 21.375 172.4375 C35.52361426 117.90943708 32.93327739 69.94990642 6.74829102 19.36474609 C6.16362061 18.23375488 5.5789502 17.10276367 4.9765625 15.9375 C4.45143066 14.93589844 3.92629883 13.93429687 3.38525391 12.90234375 C1.26149169 8.45269884 0 4.95925699 0 0 Z " fill="#00CB64" transform="translate(95,266)"/>
<path d="M0 0 C1.71987206 1.71987206 1.11974788 3.90877029 1.12442017 6.20132446 C1.12082489 6.94578827 1.11722961 7.69025208 1.11352539 8.45727539 C1.11367142 9.23770706 1.11381744 10.01813873 1.1139679 10.82221985 C1.11326858 13.4140598 1.10547536 16.00582878 1.09765625 18.59765625 C1.09579213 20.3898464 1.0943682 22.18203706 1.09336853 23.97422791 C1.08954284 28.70070797 1.07971212 33.42715752 1.06866455 38.15362549 C1.05845153 42.9728555 1.05387115 47.79209042 1.04882812 52.61132812 C1.03808989 62.07423219 1.02101286 71.53711356 1 81 C-0.30650513 81.07891479 -0.30650513 81.07891479 -1.6394043 81.15942383 C-2.79351807 81.23700928 -3.94763184 81.31459473 -5.13671875 81.39453125 C-6.27584717 81.46776611 -7.41497559 81.54100098 -8.58862305 81.61645508 C-18.97146913 82.78381006 -27.55074107 87.62696885 -34.25 95.5625 C-39.47110482 103.00899376 -42.27789199 112.94432095 -41 122 C-39.13642403 132.56539765 -34.52531251 140.69003846 -26.1875 147.49609375 C-19.42089922 152.14813179 -12.67021474 153.45442306 -4.56640625 153.82421875 C-2 154 -2 154 1 155 C1.02464928 160.25105442 1.04283568 165.50207545 1.05493164 170.75317383 C1.05997218 172.54094021 1.06680454 174.32870245 1.07543945 176.11645508 C1.0875173 178.68051168 1.09323094 181.24451397 1.09765625 183.80859375 C1.10281754 184.6127623 1.10797882 185.41693085 1.11329651 186.24546814 C1.11349215 188.16401715 1.06201983 190.08245368 1 192 C-0.70912792 193.70912792 -2.93207243 193.12488997 -5.26660156 193.12597656 C-6.39157043 193.12978333 -7.51653931 193.13359009 -8.67559814 193.13751221 C-10.51453644 193.13905304 -10.51453644 193.13905304 -12.390625 193.140625 C-14.96224843 193.15895384 -17.53386326 193.17852422 -20.10546875 193.19921875 C-24.17860919 193.22957299 -28.25144281 193.25232281 -32.32470703 193.25048828 C-36.24285606 193.24954895 -40.16017156 193.28834531 -44.078125 193.328125 C-45.29598694 193.3210553 -46.51384888 193.3139856 -47.76861572 193.30670166 C-54.55677219 193.17896983 -54.55677219 193.17896983 -60.27246094 196.30371094 C-62.5846382 199.91248506 -62.86052454 202.8953741 -62 207 C-61.06639093 209.06355652 -59.99498786 211.00909676 -58.90234375 212.9921875 C-56.88749349 217.47544738 -57.50797513 221.60592954 -59.125 226.1875 C-61.71464452 230.07196678 -64.77314041 232.88657021 -69 235 C-74.22840334 235.52113171 -78.64036754 235.64273534 -83.4375 233.375 C-88.1436593 229.01319382 -90.71705931 224.96501777 -91.2578125 218.5625 C-90.82713534 214.28183009 -88.80827617 210.68349804 -87.03125 206.80859375 C-86.01350162 204.03677145 -85.72351446 202.75179301 -86.4375 199.9375 C-88.09414509 196.82300723 -88.99883201 195.75220054 -92 194 C-94.97218062 193.54893508 -94.97218062 193.54893508 -98.29736328 193.61523438 C-100.20921921 193.60006775 -100.20921921 193.60006775 -102.15969849 193.58459473 C-103.17674047 193.58692863 -103.17674047 193.58692863 -104.21432877 193.58930969 C-106.34101645 193.59379365 -108.46687467 193.57977482 -110.59347534 193.56091309 C-115.87156055 193.51792297 -121.14962679 193.50686079 -126.42785645 193.49468994 C-130.89420094 193.48317936 -135.36016544 193.45968061 -139.82635117 193.41999817 C-141.92379263 193.40638962 -144.02072601 193.41060439 -146.11819458 193.41540527 C-147.38646088 193.40529419 -148.65472717 193.39518311 -149.96142578 193.38476562 C-151.08187286 193.38271118 -152.20231995 193.38065674 -153.35671997 193.37854004 C-154.22900238 193.25362183 -155.10128479 193.12870361 -156 193 C-157.91196065 190.13205902 -158.29257659 189.25991973 -158.6328125 186.03515625 C-158.71692383 185.24544434 -158.80103516 184.45573242 -158.88769531 183.64208984 C-159.00516113 182.36519287 -159.00516113 182.36519287 -159.125 181.0625 C-159.2084668 180.1751416 -159.29193359 179.2877832 -159.37792969 178.37353516 C-163.03243117 136.09319045 -152.74980382 93.97361412 -125.48632812 60.76513672 C-121.48658376 56.0151118 -117.31018543 51.47131386 -113 47 C-112.33742187 46.28585938 -111.67484375 45.57171875 -110.9921875 44.8359375 C-83.74664954 16.22242274 -39.50283149 -1.88108721 0 0 Z " fill="#F6BE00" transform="translate(245,53)"/>
<path d="M0 0 C34.25390427 2.10047526 66.19630042 21.9180061 90.234375 45.08984375 C90.94851563 45.75242188 91.66265625 46.415 92.3984375 47.09765625 C120.84018694 74.17964078 136.17053552 115.83186262 137.30566406 154.51953125 C137.37037828 160.62663586 136.95444171 166.6398344 136.359375 172.71484375 C136.28074219 173.60429687 136.20210937 174.49375 136.12109375 175.41015625 C136.03730469 176.28671875 135.95351563 177.16328125 135.8671875 178.06640625 C135.79387207 178.84064941 135.72055664 179.61489258 135.64501953 180.41259766 C135.09184499 184.01908521 134.11930619 187.55011899 133.234375 191.08984375 C125.314375 191.08984375 117.394375 191.08984375 109.234375 191.08984375 C109.151875 189.17171875 109.069375 187.25359375 108.984375 185.27734375 C108.04174016 173.54536149 104.07672746 164.82878534 95.68359375 156.5625 C88.93776056 151.05535578 78.8932089 148.35009584 70.2734375 148.8359375 C60.61388842 150.03875491 51.41228888 153.80436626 44.765625 161.09375 C38.8478581 168.80798185 37.37742861 176.60995347 36.234375 186.08984375 C35.90988185 187.7582541 35.57793675 189.42525545 35.234375 191.08984375 C29.98332058 191.11449303 24.73229955 191.13267943 19.48120117 191.14477539 C17.69343479 191.14981593 15.90567255 191.15664829 14.11791992 191.1652832 C11.55386332 191.17736105 8.98986103 191.18307469 6.42578125 191.1875 C5.21952843 191.19524193 5.21952843 191.19524193 3.98890686 191.20314026 C2.07035785 191.2033359 0.15192132 191.15186358 -1.765625 191.08984375 C-3.47475292 189.38071583 -2.89051497 187.15777132 -2.89160156 184.82324219 C-2.89731171 183.13578888 -2.89731171 183.13578888 -2.90313721 181.41424561 C-2.90416443 180.18828674 -2.90519165 178.96232788 -2.90625 177.69921875 C-2.92457884 175.12759532 -2.94414922 172.55598049 -2.96484375 169.984375 C-2.99519799 165.91123456 -3.01794781 161.83840094 -3.01611328 157.76513672 C-3.01517395 153.84698769 -3.05397031 149.92967219 -3.09375 146.01171875 C-3.0866803 144.79385681 -3.0796106 143.57599487 -3.07232666 142.32122803 C-2.94302335 135.52093805 -2.94302335 135.52093805 -6.10449219 129.81738281 C-9.71215129 127.4753832 -11.51292888 127.45193933 -15.765625 128.08984375 C-17.2404412 128.71920671 -18.69847009 129.38886602 -20.140625 130.08984375 C-24.75741488 132.29206039 -28.69845192 133.03635344 -33.765625 132.08984375 C-38.7366399 129.55743993 -42.25993067 126.10123241 -44.765625 121.08984375 C-45.52887518 114.24561672 -44.95675423 109.60448747 -40.765625 104.08984375 C-37.14247152 100.96075665 -33.80220269 99.33540424 -28.9765625 98.91015625 C-25.38434749 99.20210305 -22.36227479 100.64767148 -19.08984375 102.0859375 C-16.25505891 103.31037398 -13.86259377 104.01782122 -10.765625 104.08984375 C-7.23656433 102.48572527 -5.93789592 101.34825013 -3.765625 98.08984375 C-3.45960937 96.16923059 -3.45960937 96.16923059 -3.49388123 94.05331421 C-3.4841629 93.23446243 -3.47444458 92.41561066 -3.46443176 91.57194519 C-3.46384262 90.67728043 -3.46325348 89.78261566 -3.46264648 88.86083984 C-3.44998749 87.44344765 -3.44998749 87.44344765 -3.43707275 85.99742126 C-3.41124991 82.86936961 -3.39914569 79.74141231 -3.38671875 76.61328125 C-3.37055148 74.44519292 -3.35337231 72.27711192 -3.33522034 70.10903931 C-3.28948556 64.39826839 -3.25470134 58.68748785 -3.22302246 52.97662354 C-3.17118439 43.82752204 -3.10618987 34.67852786 -3.03480721 25.52956009 C-3.0118908 22.32484137 -2.99567461 19.12013646 -2.98008728 15.91537476 C-2.96668683 13.96360114 -2.95307258 12.01182898 -2.93920898 10.06005859 C-2.93528893 8.71198875 -2.93528893 8.71198875 -2.93128967 7.33668518 C-2.87029138 0.14605465 -2.87029138 0.14605465 0 0 Z " fill="#0097DC" transform="translate(268.765625,54.91015625)"/>
<path d="M0 0 C4.88351295 2.30856976 7.51973231 5.22318815 10 10 C11.75175318 15.87352537 10.80129801 18.93071895 8.4375 24.5625 C6.15070355 29.6994663 6.15070355 29.6994663 6.4375 35.125 C8.07920402 38.1457354 9.10488807 39.24341928 12 41 C14.33490293 41.40749335 14.33490293 41.40749335 16.85693359 41.28955078 C17.81828217 41.28029572 18.77963074 41.27104065 19.77011108 41.26150513 C20.8024588 41.23966156 21.83480652 41.21781799 22.8984375 41.1953125 C25.09114094 41.18834274 27.28385078 41.18319084 29.4765625 41.1796875 C32.92920436 41.15904831 36.37994731 41.12490497 39.83203125 41.05859375 C43.16776453 41.00140975 46.49980518 41.00049387 49.8359375 41.0078125 C50.86423676 40.97382355 51.89253601 40.93983459 52.95199585 40.90481567 C59.95799301 40.97474075 59.95799301 40.97474075 62.88354492 43.85327148 C64.44266588 46.17015981 65.73748854 48.51090496 67 51 C67.69899414 52.06831055 68.39798828 53.13662109 69.11816406 54.23730469 C71.16658199 57.40534167 73.20937393 60.57693859 75.25 63.75 C75.61061523 64.3063916 75.97123047 64.8627832 76.34277344 65.43603516 C77.4045361 67.07446946 78.46015774 68.71687819 79.515625 70.359375 C80.13727539 71.32327148 80.75892578 72.28716797 81.39941406 73.28027344 C82.88545918 75.80537146 83.99899663 78.25192707 85 81 C83.91058105 81.42821045 82.82116211 81.8564209 81.69873047 82.29760742 C77.6350761 83.89835243 73.57747571 85.51398073 69.52148438 87.1340332 C67.76950566 87.83143063 66.01593815 88.52485105 64.26074219 89.21411133 C61.72937674 90.2089868 59.20418339 91.21830871 56.6796875 92.23046875 C55.51214432 92.68391914 55.51214432 92.68391914 54.3210144 93.14653015 C47.73540723 95.81464575 42.74993679 98.76538166 39.65649414 105.43505859 C37.35617305 111.8873257 37.45196909 118.25744128 37.49609375 125.0390625 C37.48870722 126.37325364 37.47914868 127.70743433 37.46754456 129.04159546 C37.44105141 132.52702105 37.43524107 136.01210425 37.43664551 139.49761963 C37.43861802 144.40845901 37.43151996 149.31910218 37.39674377 154.22982788 C37.38001544 156.83640366 37.37703196 159.44311473 37.38975525 162.04971313 C37.33834925 170.92471335 36.58337889 178.41662111 30 185 C13.55084815 196.75415102 -9.88647947 189.76482593 -28.71594238 187.29150391 C-34.58290347 186.52166474 -40.45147291 185.76469866 -46.32135201 185.01745605 C-48.345963 184.75724624 -50.36937266 184.48891099 -52.39280701 184.21972656 C-64.77322446 182.24377319 -64.77322446 182.24377319 -77 184 C-78.29660434 186.49034386 -78.29660434 186.49034386 -79 189 C-79.66 189 -80.32 189 -81 189 C-81.0246519 184.17619198 -81.04283693 179.35242033 -81.05493164 174.52856445 C-81.05997174 172.88630536 -81.06680378 171.24405077 -81.07543945 169.60180664 C-81.08751926 167.24624521 -81.09323139 164.89074291 -81.09765625 162.53515625 C-81.10281754 161.79660904 -81.10797882 161.05806183 -81.11329651 160.2971344 C-81.1134925 158.53101912 -81.06194719 156.76502854 -81 155 C-79.22209369 153.22209369 -76.47195427 153.78590245 -74.0625 153.6875 C-63.34877847 152.91386147 -54.74081624 149.04646155 -47.3125 141.22265625 C-40.8061661 133.26866306 -38.25407506 124.41049073 -38.6171875 114.20703125 C-39.91283946 103.35264083 -45.04491551 95.05516002 -53.375 88.1875 C-59.97206491 83.38169112 -65.71252776 81.94045125 -73.7734375 80.92578125 C-74.46912842 80.83574829 -75.16481934 80.74571533 -75.8815918 80.6529541 C-77.58737995 80.43259263 -79.29364462 80.21592522 -81 80 C-81.02464928 74.74894558 -81.04283568 69.49792455 -81.05493164 64.24682617 C-81.05997218 62.45905979 -81.06680454 60.67129755 -81.07543945 58.88354492 C-81.0875173 56.31948832 -81.09323094 53.75548603 -81.09765625 51.19140625 C-81.10281754 50.3872377 -81.10797882 49.58306915 -81.11329651 48.75453186 C-81.11349215 46.83598285 -81.06201983 44.91754632 -81 43 C-79.29087208 41.29087208 -77.06792757 41.87511003 -74.73339844 41.87402344 C-73.60842957 41.87021667 -72.48346069 41.86640991 -71.32440186 41.86248779 C-70.09844299 41.86146057 -68.87248413 41.86043335 -67.609375 41.859375 C-65.03775157 41.84104616 -62.46613674 41.82147578 -59.89453125 41.80078125 C-55.82139081 41.77042701 -51.74855719 41.74767719 -47.67529297 41.74951172 C-43.75714394 41.75045105 -39.83982844 41.71165469 -35.921875 41.671875 C-34.70401306 41.6789447 -33.48615112 41.6860144 -32.23138428 41.69329834 C-25.44322781 41.82103017 -25.44322781 41.82103017 -19.72753906 38.69628906 C-17.4153618 35.08751494 -17.13947546 32.1046259 -18 28 C-18.93360907 25.93644348 -20.00501214 23.99090324 -21.09765625 22.0078125 C-23.11250651 17.52455262 -22.49202487 13.39407046 -20.875 8.8125 C-15.4996957 0.74954355 -9.33538447 -0.93749971 0 0 Z " fill="#F8352F" transform="translate(347,224)"/>
</svg>
